<svg width="20" height="20" viewBox="0 0 20 20" fill="none" xmlns="http://www.w3.org/2000/svg">
<g clip-path="url(#clip0_2328_411)">
<path d="M19.7044 8.55863H18.3034V7.08414C18.3034 6.63863 17.941 6.27617 17.4955 6.27617H16.5459C16.4707 6.27617 16.3982 6.28726 16.3291 6.30656V6.00914C16.3291 5.56363 15.9667 5.20117 15.5211 5.20117H13.9525C13.507 5.20117 13.1445 5.56359 13.1445 6.00914V8.55863H6.85542V6.00914C6.85542 5.56363 6.493 5.20117 6.04745 5.20117H4.47878C4.03327 5.20117 3.67081 5.56359 3.67081 6.00914V6.30656C3.60171 6.28726 3.52921 6.27617 3.45406 6.27617H2.50453C2.05902 6.27617 1.69656 6.63859 1.69656 7.08414V8.55863H0.295585C0.132304 8.55863 0 8.69097 0 8.85421V11.1457C0 11.309 0.132304 11.4413 0.295585 11.4413H1.69656V12.9158C1.69656 13.3613 2.05898 13.7238 2.50453 13.7238H3.4541C3.52925 13.7238 3.60179 13.7126 3.67085 13.6934V13.9908C3.67085 14.4363 4.03327 14.7988 4.47882 14.7988H6.04749C6.493 14.7988 6.85546 14.4363 6.85546 13.9908V11.4413H13.1446V13.9908C13.1446 14.4363 13.507 14.7988 13.9526 14.7988H15.5212C15.9667 14.7988 16.3292 14.4363 16.3292 13.9908V13.6934C16.3983 13.7127 16.4708 13.7238 16.5459 13.7238H17.4956C17.9411 13.7238 18.3035 13.3614 18.3035 12.9158V11.4413H19.7045C19.8677 11.4413 20 11.309 20 11.1457V8.85421C20 8.69097 19.8677 8.55863 19.7044 8.55863ZM1.69656 10.8501H0.59121V9.1498H1.69656V10.8501ZM3.67085 12.9158C3.67085 13.0353 3.57363 13.1326 3.4541 13.1326H2.50453C2.38503 13.1326 2.28777 13.0354 2.28777 12.9158V11.1457V8.85421V7.0841C2.28777 6.96457 2.38503 6.86734 2.50453 6.86734H3.4541C3.57363 6.86734 3.67085 6.96457 3.67085 7.0841V12.9158ZM6.26421 8.85425V11.1458V13.9908C6.26421 14.1103 6.16694 14.2076 6.04745 14.2076H4.47878C4.35929 14.2076 4.26202 14.1103 4.26202 13.9908V12.9158V7.0841V6.00914C4.26202 5.88961 4.35929 5.79238 4.47878 5.79238H6.04745C6.16694 5.79238 6.26421 5.88961 6.26421 6.00914V8.85425ZM13.1445 10.8501H6.85542V9.1498H13.1445V10.8501ZM15.7379 7.08406V12.9158V13.9908C15.7379 14.1104 15.6407 14.2076 15.5212 14.2076H13.9525C13.833 14.2076 13.7358 14.1104 13.7358 13.9908V11.1458V8.85425V6.00918C13.7358 5.88965 13.833 5.79242 13.9525 5.79242H15.5212C15.6407 5.79242 15.7379 5.88965 15.7379 6.00918V7.08406ZM17.7123 8.85421V11.1457V12.9158C17.7123 13.0354 17.615 13.1326 17.4955 13.1326H16.5459C16.4264 13.1326 16.3291 13.0354 16.3291 12.9158V7.0841C16.3291 6.96457 16.4264 6.86734 16.5459 6.86734H17.4955C17.615 6.86734 17.7123 6.96457 17.7123 7.0841V8.85421ZM19.4088 10.8501H18.3034V9.1498H19.4088V10.8501Z" fill="#000" stroke="#000" stroke-width="0.25"/>
</g>
<defs>
<clipPath id="clip0_2328_411">
<rect width="20" height="20" fill="#000"/>
</clipPath>
</defs>
</svg>
